Coordinates
version=1
nRows=26
nColumns=18
inDegrees=yes

Units are S.I. units (second, meters, Newtons, ...)
If the header above contains a line with 'inDegrees', this indicates whether rotational values are in degrees (yes) or radians (no).

endheader
time	ground_thorax_rot_x	ground_thorax_rot_y	ground_thorax_rot_z	ground_thorax_tx	ground_thorax_ty	ground_thorax_tz	clav_prot	clav_elev	scapula_abduction	scapula_elevation	scapula_upward_rot	scapula_winging	plane_elv	shoulder_elv	axial_rot	elbow_flexion	pro_sup
      2.00000000	     -3.69185507	    -18.66520401	     -0.11525130	     -0.06128057	      0.05021156	      0.02942804	    -27.67170232	     -5.82137581	      3.08376079	    -12.34767806	     51.67467345	     15.94601821	    -16.00000002	     51.36820221	     11.62560342	      0.00120871	      0.00000001
      2.02000000	     -3.78820368	    -18.61995214	     -0.41242581	     -0.06064810	      0.04995842	      0.02961269	    -27.59112454	     -6.41866825	      2.96007687	    -12.70863009	     51.18317325	     16.24990166	    -16.00000002	     51.58109463	     12.84146309	      0.00120871	      0.00000001
      2.04000000	     -3.68644829	    -18.57974839	     -0.48294147	     -0.06018595	      0.04935914	      0.02988561	    -27.44127186	     -6.41380898	      2.95584506	    -12.68185361	     50.89921985	     16.24959015	    -16.00000002	     51.52190902	     12.68927591	      0.00120871	      0.00000001
      2.06000000	     -3.84076476	    -18.49726568	     -0.81714028	     -0.05946570	      0.04901444	      0.03002385	    -27.32938614	     -7.09165243	      2.75132121	    -13.08147638	     50.21922531	     16.60774726	    -16.00000002	     51.75580368	     13.70040532	      0.00120871	      0.00000001
      2.08000000	     -3.87037763	    -18.46600270	     -1.00187769	     -0.05890920	      0.04853758	      0.03015981	    -27.06564930	     -7.47188777	      2.69850617	    -13.27525331	     49.53319543	     16.81354086	    -16.00000002	     51.94875159	     14.24914911	      0.00120871	      0.00000001
      2.10000000	     -3.70914577	    -18.35294743	     -1.26448904	     -0.05827552	      0.04774592	      0.03043740	    -26.94796222	     -7.61963138	      2.63759711	    -13.34405873	     49.18757957	     16.89640221	    -16.00000002	     51.96631054	     14.27371602	      0.00120871	      0.00000001
      2.12000000	     -3.86016609	    -18.20788331	     -1.42800732	     -0.05769494	      0.04742090	      0.03051488	    -26.78630543	     -8.21186546	      2.33426771	    -13.66621124	     48.30831969	     17.23345217	    -16.00000002	     52.04047316	     15.17420333	      0.00120871	      0.00000001
      2.14000000	     -3.89831943	    -18.16389249	     -1.58182101	     -0.05717006	      0.04693639	      0.03067742	    -26.46551305	     -8.64890841	      2.24318360	    -13.87488134	     47.43798218	     17.48387901	    -16.00000002	     52.16929938	     15.81959996	      0.00120871	      0.00000001
      2.16000000	     -3.87434723	    -18.00090992	     -1.76953349	     -0.05660085	      0.04636253	      0.03091160	    -26.33232700	     -9.02849261	      2.00381764	    -14.06650252	     46.75454614	     17.71237945	    -16.00000002	     52.09328545	     16.29592324	      0.00120871	      0.00000001
      2.18000000	     -3.61530031	    -17.91250100	     -1.91621755	     -0.05610257	      0.04550842	      0.03129068	    -26.11835206	     -9.02468147	      2.00866911	    -14.02113821	     46.35517562	     17.71307101	    -16.00000002	     51.87773830	     16.06160283	      0.00120871	      0.00000001
      2.20000000	     -3.77554307	    -17.71139108	     -2.05090589	     -0.05559898	      0.04530179	      0.03144337	    -25.96593040	     -9.75970517	      1.56636285	    -14.40764941	     45.24685067	     18.16475897	    -16.00000002	     51.83362851	     17.48710931	      0.00120871	      0.00000001
      2.22000000	     -3.46989030	    -17.60703109	     -2.22212112	     -0.05516464	      0.04442875	      0.03185400	    -25.73473166	     -9.75963088	      1.57671834	    -14.35802852	     44.81770334	     18.16779882	    -16.00000002	     51.57243070	     17.22718119	      0.00120871	      0.00000001
      2.24000000	     -3.60937372	    -17.40635191	     -2.28016758	     -0.05470575	      0.04424056	      0.03211761	    -25.61918993	    -10.40632999	      1.08302861	    -14.68243677	     43.73289322	     18.58563422	    -16.00000002	     51.27162096	     18.59359479	      0.00120871	      0.00000001
      2.26000000	     -3.25689654	    -17.29005829	     -2.47631011	     -0.05433068	      0.04338552	      0.03254354	    -25.37260959	    -10.40984208	      1.09641130	    -14.62808043	     43.27386758	     18.59126557	    -16.00000002	     50.96410040	     18.30847077	      0.00120871	      0.00000001
      2.28000000	     -3.43772635	    -17.04401134	     -2.52907103	     -0.05377998	      0.04315228	      0.03303497	    -25.48440168	    -11.01929254	      0.41245648	    -14.95169268	     42.38480057	     19.01094393	    -16.00000002	     50.18457283	     19.47532710	      0.00120871	      0.00000001
      2.30000000	     -3.24931605	    -16.93372926	     -2.60562137	     -0.05341455	      0.04245222	      0.03348694	    -25.26534023	    -11.07617404	      0.26010401	    -14.91167769	     41.74202589	     19.06411519	    -16.00000002	     49.58867654	     19.42164680	      0.00120871	      0.00000001
      2.32000000	     -3.19767471	    -16.66606823	     -2.69965854	     -0.05290856	      0.04221050	      0.03392324	    -25.32489164	    -11.55199871	     -0.33140149	    -15.14353423	     40.90832042	     19.40871023	    -16.00000002	     48.91711078	     20.59173997	      0.00120871	      0.00000001
      2.34000000	     -3.02952138	    -16.57074657	     -2.76352444	     -0.05252024	      0.04156601	      0.03443529	    -25.12883152	    -11.60882728	     -0.53183056	    -15.09692025	     40.24201118	     19.46904356	    -16.00000002	     48.15911984	     20.45856478	      0.00120871	      0.00000001
      2.36000000	     -2.99934818	    -16.29611827	     -2.91177392	     -0.05190438	      0.04126690	      0.03498795	    -25.29717296	    -12.09076635	     -1.21843297	    -15.34182194	     39.48266424	     19.83444740	    -16.00000002	     47.26937372	     21.30542142	      0.00120871	      0.00000001
      2.38000000	     -2.82965229	    -16.18552598	     -3.02381546	     -0.05147199	      0.04052521	      0.03541726	    -25.07960845	    -12.11529260	     -1.43587437	    -15.26019843	     38.75778526	     19.88096805	    -16.00000002	     46.48638283	     21.17545641	      0.00120871	      0.00000001
      2.40000000	     -2.82834900	    -15.89692104	     -3.14619649	     -0.05080665	      0.04034496	      0.03595110	    -25.26674315	    -12.64322888	     -2.23046190	    -15.51548155	     37.86078788	     20.29831735	    -16.00000002	     45.57001935	     22.13103389	      0.00120871	      0.00000001
      2.42000000	     -2.76432420	    -15.69437930	     -3.28442707	     -0.05020897	      0.03987726	      0.03637225	    -25.23330013	    -12.94678532	     -2.77136106	    -15.60205008	     36.94610135	     20.55953361	    -16.00000002	     44.75183209	     22.60243581	      0.00120871	      0.00000001
      2.44000000	     -2.59649600	    -15.58031245	     -3.44909484	     -0.04965561	      0.03909532	      0.03677678	    -25.02625934	    -12.98966483	     -3.03248512	    -15.51613195	     36.16266172	     20.62920988	    -16.00000002	     43.93538632	     22.44948765	      0.00120871	      0.00000001
      2.46000000	     -2.66469970	    -15.31897381	     -3.64052355	     -0.04886137	      0.03878750	      0.03730748	    -25.20311280	    -13.55556956	     -3.86604032	    -15.77199392	     35.14927003	     21.09811298	    -16.00000002	     43.00120153	     23.16649677	      0.00120871	      0.00000001
      2.48000000	     -2.65791889	    -15.09346534	     -3.76422381	     -0.04828557	      0.03842061	      0.03751226	    -25.07104699	    -13.97086627	     -4.48274661	    -15.86499792	     33.85642816	     21.46504671	    -16.00000002	     42.45202456	     23.79801920	      0.00120871	      0.00000001
      2.50000000	     -2.51089352	    -14.95843257	     -3.98759065	     -0.04762985	      0.03750422	      0.03784289	    -24.85766379	    -14.02339722	     -4.76447543	    -15.76385630	     33.00804139	     21.55276606	    -16.00000002	     41.67057209	     23.65976194	      0.00120871	      0.00000001
